<?xml version="1.0" standalone="no"?>
<!DOCTYPE svg PUBLIC "-//W3C//DTD SVG 20010904//EN"
 "http://www.w3.org/TR/2001/REC-SVG-20010904/DTD/svg10.dtd">
<svg version="1.0" xmlns="http://www.w3.org/2000/svg"
 width="1354.000000pt" height="1354.000000pt" viewBox="0 0 1354.000000 1354.000000"
 preserveAspectRatio="xMidYMid meet">
<metadata>
Created by potrace 1.11, written by Peter Selinger 2001-2013
</metadata>
<g transform="translate(0.000000,1354.000000) scale(0.100000,-0.100000)"
fill="#000000" stroke="none">
<path d="M528 9265 c-2 -2 -19 -7 -38 -10 -52 -9 -160 -54 -210 -88 -58 -39
-138 -119 -177 -177 -31 -46 -76 -151 -89 -205 -14 -64 -12 -224 5 -287 19
-73 70 -188 82 -188 5 0 9 -6 9 -14 0 -13 67 -86 126 -136 90 -78 236 -131
363 -133 93 -1 173 8 203 24 10 5 18 7 18 4 0 -3 35 12 78 35 140 72 224 159
289 299 36 76 40 90 51 156 8 50 7 168 -1 217 -16 91 -76 215 -142 292 -34 39
-157 139 -174 142 -3 0 -28 10 -54 22 -72 33 -160 50 -253 50 -45 0 -84 -1
-86 -3z"/>
<path d="M2659 9266 c-2 -2 -19 -6 -37 -9 -60 -10 -157 -63 -214 -118 -72 -70
-121 -148 -155 -246 -23 -68 -26 -94 -27 -203 0 -145 14 -203 76 -320 40 -75
155 -200 184 -200 8 0 14 -3 14 -7 0 -17 94 -48 175 -59 22 -3 45 -7 52 -9 7
-2 15 0 18 5 3 5 15 6 28 1 12 -5 34 -5 49 0 16 4 28 5 28 1 0 -4 21 -6 47 -4
27 1 54 3 61 2 13 0 93 0 115 0 6 0 54 -1 105 -2 50 -2 92 0 92 4 0 4 6 5 14
2 21 -8 106 -10 106 -2 0 4 12 3 28 -1 15 -5 36 -5 47 -1 11 4 24 5 29 2 6 -3
28 -5 50 -4 23 2 47 2 54 2 17 0 99 0 115 0 6 0 54 -1 105 -2 50 -2 92 0 92 4
0 4 6 5 14 2 21 -8 106 -10 106 -2 0 4 12 3 28 -1 15 -5 36 -5 47 -1 11 4 24
5 29 2 6 -3 28 -5 50 -4 23 2 47 2 54 2 17 0 99 0 115 0 6 0 54 -1 105 -2 50
-2 92 0 92 4 0 4 6 5 14 2 21 -8 106 -10 106 -2 0 4 12 3 28 -1 15 -5 36 -5
47 -1 11 4 24 5 29 2 6 -3 28 -5 50 -4 23 2 48 3 56 3 29 2 135 32 150 43 8 7
27 18 41 25 44 22 124 103 166 168 22 34 53 101 69 149 61 189 24 429 -90 579
-52 68 -115 123 -178 156 -97 50 -74 49 -1263 49 -612 0 -1114 -2 -1116 -4z"/>
<path d="M6739 9266 c-2 -3 -16 -7 -29 -9 -149 -27 -304 -181 -364 -359 -49
-144 -42 -332 16 -471 43 -103 103 -175 223 -265 32 -24 108 -49 175 -58 25
-3 48 -8 52 -10 4 -2 9 0 13 6 4 6 11 7 17 4 14 -9 124 -8 138 1 5 3 10 3 10
-2 0 -4 38 -8 85 -8 47 0 85 3 85 6 0 3 20 3 45 -1 24 -4 50 -3 57 1 6 4 16 5
22 2 12 -8 102 -7 115 1 5 4 12 3 14 -2 3 -4 23 -6 44 -4 21 1 52 2 68 2 17 0
81 -2 143 -3 61 -1 112 2 112 6 0 5 5 5 11 1 14 -8 134 -8 148 1 6 3 11 3 11
-2 0 -9 251 -9 275 1 8 3 15 2 15 -2 0 -8 203 -7 225 2 8 3 15 2 15 -2 0 -4
58 -7 130 -7 71 0 130 4 130 8 0 5 5 5 11 1 14 -8 143 -8 227 0 88 9 192 59
265 128 31 31 57 60 57 66 0 6 4 12 8 14 7 3 56 77 58 88 0 3 6 19 13 35 7 17
14 35 15 40 1 6 5 19 9 30 21 66 30 216 17 280 -5 22 -11 51 -13 65 -9 47 -47
137 -79 186 -67 101 -164 177 -276 214 -55 19 -103 19 -1183 20 -619 0 -1128
-2 -1130 -4z"/>
<path d="M10897 9234 c-1 -1 -24 -4 -52 -7 -102 -11 -210 -71 -294 -165 -28
-31 -51 -62 -51 -69 0 -6 -4 -13 -8 -15 -10 -4 -57 -113 -67 -153 -4 -16 -9
-39 -12 -50 -3 -11 -6 -63 -8 -116 -5 -209 81 -396 235 -510 19 -14 51 -33 70
-41 102 -45 44 -43 1250 -43 1114 0 1146 1 1195 20 28 10 53 18 58 17 4 -1 7
2 7 8 0 5 5 10 11 10 15 0 78 48 118 90 65 69 128 179 147 260 4 19 9 42 11
50 3 8 6 57 7 107 3 83 0 110 -20 203 -3 14 -23 62 -45 107 -36 76 -106 162
-174 213 -30 23 -108 58 -157 70 -31 8 -374 12 -1132 13 -598 1 -1088 1 -1089
1z"/>
<path d="M8705 7393 c-77 -10 -215 -68 -274 -118 -83 -68 -136 -131 -178 -211
-89 -168 -92 -375 -8 -561 15 -35 31 -63 36 -63 4 0 10 -8 13 -18 6 -19 95
-112 143 -149 127 -100 350 -143 514 -101 67 18 177 63 189 78 3 3 20 16 38
29 92 64 172 177 216 301 26 74 29 99 29 190 0 98 -2 122 -15 160 -3 8 -13 40
-23 70 -45 136 -175 275 -319 340 -111 51 -230 68 -361 53z"/>
<path d="M477 7363 c-1 -1 -22 -4 -46 -8 -190 -28 -350 -190 -410 -414 -15
-57 -19 -99 -16 -185 3 -130 27 -217 88 -321 58 -99 199 -207 302 -232 17 -4
543 -8 1170 -8 l1140 0 70 28 c106 44 190 116 249 217 34 58 62 124 70 162 3
13 9 43 14 68 11 60 8 194 -8 262 -46 201 -213 381 -392 419 -36 8 -377 12
-1141 13 -599 0 -1089 0 -1090 -1z"/>
<path d="M4560 7360 c0 -3 -12 -5 -27 -4 -72 4 -212 -73 -289 -159 -93 -104
-144 -240 -149 -398 -5 -151 28 -271 106 -386 33 -50 113 -133 127 -133 5 0
17 -8 28 -19 12 -10 52 -29 90 -42 l69 -24 1135 1 c624 0 1149 3 1165 7 57 14
154 70 203 117 128 124 191 284 187 480 -1 47 -7 105 -14 130 -16 61 -62 172
-78 188 -7 7 -13 17 -13 21 0 14 -115 128 -156 153 -49 31 -124 58 -179 65
-56 7 -2205 9 -2205 3z"/>
<path d="M487 5514 c-298 -70 -497 -331 -483 -634 6 -129 37 -224 108 -329 31
-45 135 -151 149 -151 4 0 14 -6 21 -14 19 -18 122 -67 167 -78 72 -18 87 -20
161 -22 102 -4 189 16 285 63 120 59 209 142 272 252 118 208 100 480 -45 679
-139 190 -405 288 -635 234z"/>
<path d="M6815 5520 c-2 -4 -22 -10 -43 -14 -77 -12 -200 -84 -276 -160 -39
-40 -78 -85 -86 -102 -8 -16 -18 -31 -21 -34 -6 -6 -51 -116 -51 -124 1 -3 -4
-20 -9 -38 -22 -74 -20 -229 5 -313 56 -189 218 -361 391 -414 22 -7 47 -15
55 -18 33 -13 49 -14 150 -15 98 -1 156 8 219 34 14 6 28 12 31 12 18 4 103
53 126 73 142 120 207 225 241 388 19 93 4 243 -36 348 -5 12 -9 27 -11 32 -1
6 -7 17 -15 25 -7 8 -19 29 -28 45 -36 71 -188 200 -274 232 -29 11 -60 22
-68 23 -3 1 -19 6 -37 12 -38 12 -256 19 -263 8z"/>
<path d="M2705 5489 c-136 -10 -233 -56 -325 -155 -178 -191 -209 -521 -72
-758 43 -73 136 -165 202 -200 107 -56 65 -54 1276 -54 l1119 0 65 22 c62 21
102 42 144 76 32 26 96 91 96 97 0 4 6 14 14 22 29 34 68 116 88 189 33 119
29 290 -10 392 -3 8 -6 18 -6 21 -3 18 -51 109 -58 109 -4 0 -8 7 -8 15 0 43
-195 194 -270 209 -14 2 -39 8 -56 11 -40 9 -2082 12 -2199 4z"/>
</g>
</svg>
