<svg version="1.1" viewBox="0.0 0.0 677.007874015748 250.501312335958" fill="none" stroke="none" stroke-linecap="square" stroke-miterlimit="10" xmlns:xlink="http://www.w3.org/1999/xlink" xmlns="http://www.w3.org/2000/svg"><clipPath id="p.0"><path d="m0 0l677.0079 0l0 250.50131l-677.0079 0l0 -250.50131z" clip-rule="nonzero"/></clipPath><g clip-path="url(#p.0)"><path fill="#ffffff" fill-opacity="0.0" d="m0 0l677.0079 0l0 250.50131l-677.0079 0z" fill-rule="evenodd"/><path fill="#ffffff" d="m0 31.165354l0 0c0 -17.21215 13.953204 -31.165354 31.165354 -31.165354l0 0c8.265566 0 16.192595 3.2834833 22.037233 9.128121c5.844639 5.844637 9.12812 13.771667 9.12812 22.037231l0 0c0 17.212149 -13.953205 31.165354 -31.165354 31.165354l0 0c-17.21215 0 -31.165354 -13.953205 -31.165354 -31.165354z" fill-rule="evenodd"/><path fill="#ffffff" d="m136.07997 0l105.71071 0l0 0c13.848389 -1.4789673E-14 25.074738 13.104872 25.074738 29.270552c0 16.165678 -11.226349 29.270552 -25.074738 29.270552l-105.71071 0l0 0c-13.848389 0 -25.074722 -13.104874 -25.074722 -29.270552c0 -16.16568 11.226334 -29.270552 25.074722 -29.270552z" fill-rule="evenodd"/><path fill="#ffffff" d="m340.61542 0l105.71069 0l0 0c13.848389 -1.4789673E-14 25.074738 13.104872 25.074738 29.270552c0 16.165678 -11.226349 29.270552 -25.074738 29.270552l-105.71069 0l0 0c-13.848389 0 -25.074738 -13.104874 -25.074738 -29.270552c0 -16.16568 11.226349 -29.270552 25.074738 -29.270552z" fill-rule="evenodd"/><path fill="#ffffff" d="m545.1508 1.8950131l105.710754 0l0 0c13.848389 0 25.074707 13.104873 25.074707 29.27055c0 16.165678 -11.226318 29.270552 -25.074707 29.270552l-105.710754 0l0 0c-13.848389 0 -25.074707 -13.104874 -25.074707 -29.270552c0 -16.165678 11.226318 -29.27055 25.074707 -29.27055z" fill-rule="evenodd"/><path fill="#ffffff" d="m25.074724 95.4042l105.71071 0l0 0c13.848389 0 25.074722 13.104874 25.074722 29.270554c0 16.165672 -11.226334 29.270546 -25.074722 29.270546l-105.71071 0l0 0c-13.848388 0 -25.074724 -13.104874 -25.074724 -29.270546c-6.562685E-15 -16.16568 11.2263365 -29.270554 25.074724 -29.270554z" fill-rule="evenodd"/><path fill="#ffffff" d="m229.61015 95.4042l105.71071 0l0 0c13.848389 0 25.074738 13.104874 25.074738 29.270554c0 16.165672 -11.226349 29.270546 -25.074738 29.270546l-105.71071 0l0 0c-13.848389 0 -25.074722 -13.104874 -25.074722 -29.270546c0 -16.16568 11.226334 -29.270554 25.074722 -29.270554z" fill-rule="evenodd"/><path fill="#ffffff" d="m409.07086 124.67454l0 0c0 -17.21215 13.953217 -31.165352 31.165344 -31.165352l0 0c8.2655945 0 16.192596 3.2834854 22.037262 9.12812c5.844635 5.844635 9.128113 13.7716675 9.128113 22.037231l0 0c0 17.21215 -13.953217 31.165352 -31.165375 31.165352l0 0c-17.212128 0 -31.165344 -13.953201 -31.165344 -31.165352z" fill-rule="evenodd"/><path fill="#ffffff" d="m0 218.18373l0 0c0 -17.212158 13.953204 -31.16536 31.165354 -31.16536l0 0c8.265566 0 16.192595 3.2834778 22.037233 9.128128c5.844639 5.844635 9.12812 13.7716675 9.12812 22.037231l0 0c0 17.212143 -13.953205 31.165344 -31.165354 31.165344l0 0c-17.21215 0 -31.165354 -13.953201 -31.165354 -31.165344z" fill-rule="evenodd"/><path fill="#ffffff" d="m136.07997 188.91339l105.71071 0l0 0c13.848389 0 25.074738 13.104874 25.074738 29.270538c0 16.16568 -11.226349 29.270554 -25.074738 29.270554l-105.71071 0l0 0c-13.848389 0 -25.074722 -13.104874 -25.074722 -29.270554c0 -16.165665 11.226334 -29.270538 25.074722 -29.270538z" fill-rule="evenodd"/><path fill="#ffffff" d="m315.54068 218.18373l0 0c0 -17.212158 13.953217 -31.16536 31.165344 -31.16536l0 0c8.265564 0 16.192596 3.2834778 22.037231 9.128128c5.8446655 5.844635 9.128143 13.7716675 9.128143 22.037231l0 0c0 17.212143 -13.953217 31.165344 -31.165375 31.165344l0 0c-17.212128 0 -31.165344 -13.953201 -31.165344 -31.165344z" fill-rule="evenodd"/></g></svg>